<?xml version="1.0" standalone="no"?>
<!DOCTYPE svg PUBLIC "-//W3C//DTD SVG 20010904//EN"
 "http://www.w3.org/TR/2001/REC-SVG-20010904/DTD/svg10.dtd">
<svg version="1.0" xmlns="http://www.w3.org/2000/svg"
 width="1280.000000pt" height="1275.000000pt" viewBox="0 0 1280.000000 1275.000000"
 preserveAspectRatio="xMidYMid meet">
<metadata>
Created by potrace 1.15, written by Peter Selinger 2001-2017
</metadata>
<g transform="translate(0.000000,1275.000000) scale(0.100000,-0.100000)"
fill="#000000" stroke="none">
<path d="M6005 12649 c-837 -53 -1639 -267 -2390 -639 -924 -457 -1668 -1079
-2292 -1915 -62 -82 -112 -153 -110 -157 2 -7 1188 -696 1206 -701 5 -1 42 41
82 94 777 1017 1941 1701 3199 1878 266 37 391 46 700 46 309 0 434 -9 700
-46 1257 -177 2411 -854 3196 -1874 42 -55 80 -99 85 -98 18 5 1204 694 1206
701 4 10 -228 318 -350 463 -460 549 -997 1005 -1627 1382 -220 131 -640 338
-875 431 -644 253 -1274 393 -1965 436 -189 11 -573 11 -765 -1z"/>
<path d="M6090 10549 c-244 -18 -529 -67 -769 -130 -111 -30 -344 -104 -368
-117 -6 -4 91 -8 215 -8 281 -2 594 -29 784 -70 24 -5 39 6 124 88 53 51 128
128 166 171 l70 77 -53 -1 c-30 -1 -106 -6 -169 -10z"/>
<path d="M6604 10473 c-34 -43 -114 -135 -177 -204 l-116 -126 67 -18 c123
-33 385 -125 532 -187 380 -161 800 -412 1078 -646 l52 -44 20 24 c109 127
426 576 479 675 10 21 5 25 -91 79 -508 285 -1117 470 -1708 519 l-75 6 -61
-78z"/>
<path d="M4380 10042 c-233 -127 -436 -264 -645 -435 -138 -113 -385 -343
-385 -359 0 -8 60 -9 203 -4 305 11 268 -6 387 169 149 222 267 368 479 596
51 56 92 101 90 101 -2 0 -60 -31 -129 -68z"/>
<path d="M4970 10012 c0 -19 153 -362 162 -362 38 0 547 308 548 331 0 12
-233 30 -467 36 -166 4 -243 3 -243 -5z"/>
<path d="M5970 9849 c-157 -128 -384 -276 -601 -394 -68 -37 -125 -69 -127
-70 -3 -3 737 -1715 745 -1725 8 -9 343 167 503 263 494 296 810 548 1273
1015 l99 99 -89 70 c-395 316 -889 574 -1378 723 -121 37 -324 91 -335 89 -3
0 -43 -32 -90 -70z"/>
<path d="M4578 9772 c-156 -170 -358 -420 -358 -442 0 -20 456 116 602 179
l48 20 -30 68 c-99 231 -129 298 -137 300 -4 2 -61 -54 -125 -125z"/>
<path d="M8745 9748 c-99 -163 -301 -448 -436 -614 l-58 -71 86 -84 c436 -429
820 -1029 1030 -1608 18 -52 37 -100 41 -107 16 -29 444 459 693 791 42 55 79
106 83 113 8 13 -87 200 -180 353 -287 475 -649 875 -1086 1200 -66 49 -123
89 -127 89 -5 0 -25 -28 -46 -62z"/>
<path d="M4845 9218 c-228 -87 -522 -164 -806 -212 -34 -6 -38 -12 -111 -149
-256 -479 -421 -1026 -473 -1575 -8 -85 -15 -169 -15 -185 l0 -29 138 6 c569
28 971 89 1451 222 224 62 669 218 694 243 7 7 -725 1708 -741 1722 -4 3 -65
-16 -137 -43z"/>
<path d="M3029 8868 c-336 -455 -578 -964 -708 -1493 -16 -66 -33 -136 -36
-156 l-7 -37 89 -16 c203 -36 475 -69 681 -82 92 -6 112 -4 112 7 0 48 24 277
41 404 63 464 213 954 415 1357 l54 108 -223 0 c-123 0 -251 3 -283 6 l-59 6
-76 -104z"/>
<path d="M7932 8710 c-462 -484 -1029 -903 -1664 -1230 l-166 -85 399 -920
c219 -506 405 -935 414 -953 l15 -32 237 119 c738 372 1358 802 1950 1351 l72
67 -39 114 c-169 507 -438 986 -775 1385 -85 101 -294 324 -303 324 -4 0 -67
-63 -140 -140z"/>
<path d="M506 8605 c-215 -562 -342 -1131 -398 -1775 -27 -314 -14 -863 28
-1225 170 -1462 886 -2867 1966 -3862 1002 -924 2194 -1477 3546 -1648 l52 -7
-2 708 -3 707 -140 24 c-828 140 -1623 509 -2300 1067 -144 118 -498 471 -614
611 -662 800 -1036 1707 -1132 2745 -16 173 -16 635 0 810 35 382 110 757 220
1099 22 69 38 128 35 132 -2 4 -23 18 -47 31 -75 43 -1111 640 -1143 659 l-31
19 -37 -95z"/>
<path d="M11652 8350 c-332 -191 -608 -352 -613 -357 -6 -6 -1 -32 11 -69 110
-314 198 -731 236 -1115 20 -201 23 -665 5 -859 -108 -1168 -579 -2195 -1386
-3019 -726 -741 -1662 -1235 -2660 -1404 l-140 -24 -3 -707 -2 -708 52 7
c1132 143 2159 558 3048 1231 1335 1011 2207 2485 2444 4134 47 322 60 517 60
895 0 554 -49 973 -174 1490 -62 257 -187 652 -257 812 l-18 41 -603 -348z"/>
<path d="M10164 7683 c-190 -237 -340 -408 -520 -593 l-142 -145 28 -122 c70
-305 100 -554 107 -888 6 -280 -4 -471 -38 -715 -17 -125 -74 -415 -95 -489
-6 -21 4 -16 72 34 237 174 489 379 739 601 222 197 213 186 231 285 98 565
73 1187 -72 1747 -39 152 -130 433 -148 458 -10 13 -36 -15 -162 -173z"/>
<path d="M5705 7229 c-279 -115 -702 -241 -1040 -309 -354 -72 -628 -103
-1097 -126 l-128 -6 0 -78 c0 -107 26 -353 55 -528 63 -370 184 -747 355
-1108 63 -133 165 -320 180 -329 13 -8 209 10 450 41 691 88 1334 254 2005
516 99 39 181 72 183 74 8 6 -823 1904 -833 1903 -5 -1 -64 -23 -130 -50z"/>
<path d="M2226 6874 c-29 -150 -40 -664 -17 -889 37 -378 118 -736 241 -1073
42 -114 57 -143 74 -147 12 -3 100 -12 196 -21 170 -15 990 -33 990 -21 0 3
-40 87 -90 188 -255 518 -401 1044 -450 1624 -5 66 -10 153 -10 193 l0 72 -47
0 c-135 0 -434 34 -844 97 -34 5 -37 3 -43 -23z"/>
<path d="M9120 6588 c-433 -387 -974 -768 -1525 -1073 -125 -69 -510 -265
-543 -276 -9 -3 93 -247 324 -779 185 -426 338 -777 340 -779 6 -6 57 17 279
125 348 170 738 390 1044 588 l97 63 32 104 c129 423 180 740 189 1172 7 349
-15 629 -72 900 -8 40 -15 73 -15 75 0 11 -33 -16 -150 -120z"/>
<path d="M6680 5079 c-694 -290 -1502 -497 -2294 -588 -92 -11 -170 -22 -173
-24 -3 -3 30 -52 73 -108 397 -524 906 -941 1508 -1235 l154 -76 119 32 c397
105 846 256 1243 418 98 40 144 64 142 73 -5 25 -667 1549 -672 1548 -3 0 -48
-18 -100 -40z"/>
<path d="M10308 4988 c-205 -177 -534 -430 -800 -616 l-146 -102 -53 -133
c-204 -509 -543 -1031 -928 -1429 -57 -60 -100 -108 -96 -108 11 0 144 73 290
161 554 330 1040 808 1387 1364 102 162 243 434 319 615 50 121 121 320 114
320 -2 0 -41 -32 -87 -72z"/>
<path d="M2660 4431 c12 -24 55 -101 96 -173 328 -571 791 -1060 1347 -1422
l117 -77 162 16 c337 33 663 80 1006 146 67 13 122 26 122 29 0 3 -51 34 -112
69 -341 194 -656 436 -948 730 -202 203 -352 384 -512 615 l-55 79 -389 -2
c-349 -1 -563 5 -782 25 l-74 7 22 -42z"/>
<path d="M8850 3948 c-185 -111 -459 -258 -723 -389 -153 -76 -283 -139 -288
-141 -8 -3 214 -532 249 -595 7 -12 32 10 115 99 241 258 437 522 599 808 77
135 141 261 136 266 -2 2 -42 -20 -88 -48z"/>
<path d="M7450 3253 c-269 -114 -974 -363 -1027 -363 -38 0 8 -19 117 -48 359
-98 772 -152 1153 -152 118 0 138 2 135 15 -8 40 -254 595 -263 594 -5 -1 -57
-21 -115 -46z"/>
<path d="M5815 2728 c-298 -69 -723 -147 -1003 -184 -73 -9 -129 -20 -125 -24
24 -22 357 -146 512 -191 423 -123 766 -172 1206 -172 344 0 602 27 919 99
127 28 383 102 476 137 l65 24 -295 6 c-337 6 -526 26 -826 87 -227 47 -520
133 -725 213 l-84 33 -120 -28z"/>
</g>
</svg>
